# xmcd
#
# Track frame offsets:
#	150
#	18387
#	40134
#	69590
#	99724
#	131518
#	174627
#	211709
#	252872
#	288102
#
# Disc length: 4346 seconds
#
# Revision: 0
# Processed by: cddbd v1.5.2PL0 Copyright (c) Steve Scherf et al.
# Submitted via: EasyCDDAExtractor 16.1.0.1
#
DISCID=8610f80a
DTITLE=Pet Shop Boys - West end girls - part 2
DYEAR=1900
DGENRE=
TTITLE0=West End Girls (Ssingle Version)
TTITLE1=West End Girls (Album Version)
TTITLE2=West End Girls (Dance Mix)
TTITLE3=West End Girls (Dance Mix Full Length)
TTITLE4=West End Girls (10'' Version)
TTITLE5=West End Girls (Dub Mix
TTITLE6=West End Girls (Shep Pettibone Mastermix)
TTITLE7=West End Girls ('Disco' Remix)
TTITLE8=West End Girls (Sasha Remix)
TTITLE9=West End Girls (Sasha Dub)
EXTD=
EXTT0=
EXTT1=
EXTT2=
EXTT3=
EXTT4=
EXTT5=
EXTT6=
EXTT7=
EXTT8=
EXTT9=
PLAYORDER=
